<svg xmlns="http://www.w3.org/2000/svg" viewBox="0 0 1000 230" width="1000" height="230">
<defs>
  <linearGradient id="card" x1="0" y1="0" x2="0.5" y2="1">
    <stop offset="0" stop-color="#0E1736"/><stop offset="1" stop-color="#090E26"/>
  </linearGradient>
  <linearGradient id="accent" x1="0" y1="0" x2="0" y2="1">
    <stop offset="0" stop-color="#E10600"/><stop offset="1" stop-color="#FFC400"/>
  </linearGradient>
  <linearGradient id="fade" x1="0" y1="0" x2="1" y2="0">
    <stop offset="0" stop-color="#27315e"/><stop offset="1" stop-color="#27315e" stop-opacity="0"/>
  </linearGradient>
  <linearGradient id="redfade" x1="0" y1="0" x2="1" y2="0">
    <stop offset="0" stop-color="#E10600"/><stop offset="1" stop-color="#E10600" stop-opacity="0"/>
  </linearGradient>
  
</defs>
<rect width="1000" height="230" rx="14" fill="#05081A"/><rect width="1000" height="230" rx="14" fill="url(#card)" stroke="#27315e"/>
<rect x="0" y="14" width="34" height="26" rx="4" fill="#E10600"/>
<text x="17" y="32" font-family="'Cascadia Code','Consolas','SFMono-Regular',ui-monospace,monospace" font-size="14" font-weight="700" fill="#05081A" text-anchor="middle">S2</text>
<text x="48" y="33" font-family="'Arial Narrow','Helvetica Neue',Arial,sans-serif" font-size="22" font-weight="800" letter-spacing="1.5" fill="#E9EDFB">SECTORS</text>
<text x="143" y="33" font-family="'Arial Narrow','Helvetica Neue',Arial,sans-serif" font-size="15" font-weight="600" fill="#5C6790">/ Where I Race</text>
<rect x="259" y="26" width="733" height="1.5" fill="url(#fade)"/>
<rect x="14" y="58" width="318" height="150" rx="10" fill="#0a0f26" stroke="#27315e"/>
<rect x="14" y="58" width="318" height="34" rx="0" fill="#E10600" fill-opacity="0.12"/>
<rect x="14" y="58" width="4" height="34" fill="#E10600"/>
<text x="32" y="81" font-family="'Cascadia Code','Consolas','SFMono-Regular',ui-monospace,monospace" font-size="13" font-weight="700" letter-spacing="2" fill="#fff">FOCUS</text>
<text x="32" y="124" font-family="'Arial Narrow','Helvetica Neue',Arial,sans-serif" font-size="16" font-weight="600" fill="#E9EDFB">AI systems &amp; kernels</text>
<rect x="32" y="136" width="282" height="1" fill="#27315e"/>
<text x="32" y="154" font-family="'Arial Narrow','Helvetica Neue',Arial,sans-serif" font-size="16" font-weight="600" fill="#E9EDFB">Low-level optimization</text>
<rect x="355" y="58" width="318" height="150" rx="10" fill="#0a0f26" stroke="#27315e"/>
<rect x="355" y="58" width="318" height="34" rx="0" fill="#FFC400" fill-opacity="0.12"/>
<rect x="355" y="58" width="4" height="34" fill="#FFC400"/>
<text x="373" y="81" font-family="'Cascadia Code','Consolas','SFMono-Regular',ui-monospace,monospace" font-size="13" font-weight="700" letter-spacing="2" fill="#fff">EXPLORING</text>
<text x="373" y="124" font-family="'Arial Narrow','Helvetica Neue',Arial,sans-serif" font-size="16" font-weight="600" fill="#E9EDFB">Quantum computing &amp; FPGA</text>
<rect x="373" y="136" width="282" height="1" fill="#27315e"/>
<text x="373" y="154" font-family="'Arial Narrow','Helvetica Neue',Arial,sans-serif" font-size="16" font-weight="600" fill="#E9EDFB">Neuromorphic engineering</text>
<rect x="696" y="58" width="318" height="150" rx="10" fill="#0a0f26" stroke="#27315e"/>
<rect x="696" y="58" width="318" height="34" rx="0" fill="#22D67A" fill-opacity="0.12"/>
<rect x="696" y="58" width="4" height="34" fill="#22D67A"/>
<text x="714" y="81" font-family="'Cascadia Code','Consolas','SFMono-Regular',ui-monospace,monospace" font-size="13" font-weight="700" letter-spacing="2" fill="#fff">COLLABORATE</text>
<text x="714" y="124" font-family="'Arial Narrow','Helvetica Neue',Arial,sans-serif" font-size="16" font-weight="600" fill="#E9EDFB">Open source &amp; infra</text>
<rect x="714" y="136" width="282" height="1" fill="#27315e"/>
<text x="714" y="154" font-family="'Arial Narrow','Helvetica Neue',Arial,sans-serif" font-size="16" font-weight="600" fill="#E9EDFB">Hackathons &amp; events</text>
</svg>